<svg width="104" height="84" viewBox="0 0 104 84" fill="none" xmlns="http://www.w3.org/2000/svg">
<path d="M68.1846 73.533C71.2326 74.6839 75.0346 75.4062 79.7892 75.4062C84.5358 75.4062 88.3379 74.6919 91.3779 73.5409C103.586 68.9213 103.586 57.3484 103.586 57.3484C103.586 51.9748 99.2281 47.625 93.8624 47.625H65.7001C60.3264 47.625 55.9767 51.9748 55.9767 57.3484C55.9767 57.3484 55.9767 68.9134 68.1846 73.5409" fill="url(#paint0_linear_595_281)"/>
<path d="M68.1846 73.533C71.2326 74.6839 75.0346 75.4062 79.7892 75.4062C84.5358 75.4062 88.3379 74.6919 91.3779 73.5409C103.586 68.9213 103.586 57.3484 103.586 57.3484C103.586 51.9748 99.2281 47.625 93.8624 47.625H65.7001C60.3264 47.625 55.9767 51.9748 55.9767 57.3484C55.9767 57.3484 55.9767 68.9134 68.1846 73.5409" fill="url(#paint1_radial_595_281)" fill-opacity="0.5"/>
<path d="M63.9142 59.5312C63.9142 56.3735 62.6598 53.3451 60.4269 51.1123C58.1941 48.8794 55.1657 47.625 52.0079 47.625H12.3204C9.1627 47.625 6.1343 48.8794 3.90144 51.1123C1.66859 53.3451 0.414185 56.3735 0.414185 59.5312V60.1266C0.414185 60.1266 0.414185 83.3438 32.1642 83.3438C62.4219 83.3438 63.8427 62.2617 63.9142 60.2774V59.5312Z" fill="url(#paint2_linear_595_281)"/>
<path d="M63.9142 59.5312C63.9142 56.3735 62.6598 53.3451 60.4269 51.1123C58.1941 48.8794 55.1657 47.625 52.0079 47.625H12.3204C9.1627 47.625 6.1343 48.8794 3.90144 51.1123C1.66859 53.3451 0.414185 56.3735 0.414185 59.5312V60.1266C0.414185 60.1266 0.414185 83.3438 32.1642 83.3438C62.4219 83.3438 63.8427 62.2617 63.9142 60.2774V59.5312Z" fill="url(#paint3_linear_595_281)"/>
<path d="M79.7892 39.6875C83.9995 39.6875 88.0374 38.015 91.0145 35.0378C93.9916 32.0607 95.6642 28.0228 95.6642 23.8125C95.6642 19.6022 93.9916 15.5643 91.0145 12.5872C88.0374 9.61004 83.9995 7.9375 79.7892 7.9375C75.5789 7.9375 71.541 9.61004 68.5639 12.5872C65.5867 15.5643 63.9142 19.6022 63.9142 23.8125C63.9142 28.0228 65.5867 32.0607 68.5639 35.0378C71.541 38.015 75.5789 39.6875 79.7892 39.6875Z" fill="url(#paint4_linear_595_281)"/>
<path d="M52.0079 19.8438C52.0079 25.1066 49.9173 30.154 46.1958 33.8754C42.4744 37.5968 37.4271 39.6875 32.1642 39.6875C26.9013 39.6875 21.854 37.5968 18.1325 33.8754C14.4111 30.154 12.3204 25.1066 12.3204 19.8438C12.3204 14.5809 14.4111 9.53352 18.1325 5.8121C21.854 2.09067 26.9013 0 32.1642 0C37.4271 0 42.4744 2.09067 46.1958 5.8121C49.9173 9.53352 52.0079 14.5809 52.0079 19.8438Z" fill="url(#paint5_linear_595_281)"/>
<defs>
<linearGradient id="paint0_linear_595_281" x1="67.2956" y1="51.3159" x2="77.4476" y2="79.0813" gradientUnits="userSpaceOnUse">
<stop offset="0.125" stop-color="#9C6CFE"/>
<stop offset="1" stop-color="#7A41DC"/>
</linearGradient>
<radialGradient id="paint1_radial_595_281" cx="0" cy="0" r="1" gradientUnits="userSpaceOnUse" gradientTransform="translate(49.9442 61.5156) rotate(-7.36814) scale(31.5918 32.7354)">
<stop offset="0.392" stop-color="#3B148A"/>
<stop offset="1" stop-color="#3B148A" stop-opacity="0"/>
</radialGradient>
<linearGradient id="paint2_linear_595_281" x1="15.5113" y1="52.3716" x2="28.1954" y2="88.3761" gradientUnits="userSpaceOnUse">
<stop offset="0.125" stop-color="#BD96FF"/>
<stop offset="1" stop-color="#9C6CFE"/>
</linearGradient>
<linearGradient id="paint3_linear_595_281" x1="32.1642" y1="43.3705" x2="50.0236" y2="102.703" gradientUnits="userSpaceOnUse">
<stop stop-color="#885EDB" stop-opacity="0"/>
<stop offset="1" stop-color="#E362F8"/>
</linearGradient>
<linearGradient id="paint4_linear_595_281" x1="71.4627" y1="12.1603" x2="87.6473" y2="37.9968" gradientUnits="userSpaceOnUse">
<stop offset="0.125" stop-color="#9C6CFE"/>
<stop offset="1" stop-color="#7A41DC"/>
</linearGradient>
<linearGradient id="paint5_linear_595_281" x1="21.7581" y1="5.27844" x2="41.9829" y2="37.5761" gradientUnits="userSpaceOnUse">
<stop offset="0.125" stop-color="#BD96FF"/>
<stop offset="1" stop-color="#9C6CFE"/>
</linearGradient>
</defs>
</svg>
